<svg id="Layer_2" xmlns="http://www.w3.org/2000/svg" width="44.169" height="19.73" viewBox="0 0 44.169 19.73">
  <path id="Path_60" data-name="Path 60" d="M38.528,0H5.641L0,9.865,5.641,19.73H38.528l5.641-9.865ZM36.643,18.088H6.881l-4.7-8.223,4.7-8.223H36.643l4.7,8.223Z" fill="#008ec7"/>
  <path id="Path_61" data-name="Path 61" d="M57.6,24.864l-4.7,8.223H23.133l-4.7-8.223,4.7-8.224H52.895Z" transform="translate(-16.252 -14.998)" fill="#005b9b"/>
  <path id="Path_62" data-name="Path 62" d="M79.912,71.89v5.873H78.283V75.354H75.092v2.408H73.46V71.89h1.627v2.315h3.191V71.89Z" transform="translate(-64.778 -64.798)" fill="#fff"/>
  <path id="Path_63" data-name="Path 63" d="M137.7,73H135.45V71.89h6.13V73h-2.246v4.765H137.7Z" transform="translate(-119.442 -64.798)" fill="#fff"/>
  <path id="Path_64" data-name="Path 64" d="M191.1,73H188.85V71.89h6.13V73h-2.251v4.765H191.1Z" transform="translate(-166.531 -64.798)" fill="#fff"/>
  <path id="Path_65" data-name="Path 65" d="M252.788,72.142a2.369,2.369,0,0,1,1.064.738,1.908,1.908,0,0,1,0,2.261,2.324,2.324,0,0,1-1.064.738,4.661,4.661,0,0,1-1.624.255h-1.418v1.62H248.12V71.882h3.044a4.589,4.589,0,0,1,1.624.26Zm-.6,2.621a.857.857,0,0,0,.382-.751.867.867,0,0,0-.382-.759,1.96,1.96,0,0,0-1.116-.264h-1.327v2.038h1.327A1.956,1.956,0,0,0,252.19,74.763Z" transform="translate(-218.796 -64.79)" fill="#fff"/>
</svg>
