<svg xmlns="http://www.w3.org/2000/svg" width="738.22" height="557.747" viewBox="0 0 738.22 557.747">
  <g id="empty_tag_illus_" data-name="empty tag illus " transform="translate(0 0)">
    <rect id="Rectangle_256" data-name="Rectangle 256" width="738.22" height="2" transform="translate(0 555.747)" fill="#e6e6e6"/>
    <g id="Group_24" data-name="Group 24">
      <path id="Path_552" data-name="Path 552" d="M716.948,409.114a14.215,14.215,0,0,1,1.987,1.108l63.154-26.954,2.253-16.636,25.235-.155-1.491,38.158-83.357,22.047a14.938,14.938,0,0,1-.631,1.7,14.411,14.411,0,1,1-7.151-19.265Z" transform="translate(-230.89 -213.157)" fill="#a0616a"/>
      <path id="Path_553" data-name="Path 553" d="M818.754,754.875H801.491l-8.212-66.584h25.477Z" transform="translate(-230.89 -213.157)" fill="#a0616a"/>
      <path id="Path_554" data-name="Path 554" d="M789.161,749.943h33.292V770.9H768.2a20.962,20.962,0,0,1,20.962-20.962h0Z" transform="translate(-230.89 -213.157)" fill="#2f2e41"/>
      <path id="Path_555" data-name="Path 555" d="M885.89,750l-17.178,1.69-14.7-65.458,25.355-2.491Z" transform="translate(-230.89 -213.157)" fill="#a0616a"/>
      <path id="Path_556" data-name="Path 556" d="M855.946,747.993l33.126-3.263,2.054,20.857L837.145,770.9a20.958,20.958,0,0,1,18.8-22.911Z" transform="translate(-230.89 -213.157)" fill="#2f2e41"/>
      <circle id="Ellipse_84" data-name="Ellipse 84" cx="34.583" cy="34.583" r="34.583" transform="translate(558.086 13.685)" fill="#a0616a"/>
      <path id="Path_557" data-name="Path 557" d="M797.633,741.409a6.3,6.3,0,0,1-6.217-5.21c-8.929-49.59-38.141-211.772-38.84-216.268a1.985,1.985,0,0,1-.023-.312V507.525a2.1,2.1,0,0,1,.393-1.228l3.858-5.4a2.082,2.082,0,0,1,1.611-.88c22-1.031,94.036-4.054,97.516.294h0c3.495,4.365,2.253,17.611,1.971,20.22l.014.272,32.366,206.982a6.353,6.353,0,0,1-5.233,7.23l-20.214,3.33a6.366,6.366,0,0,1-7.076-4.355c-6.252-19.978-27.216-87.184-34.482-113.19a.7.7,0,0,0-1.381.2c.363,24.79,1.24,88.036,1.549,109.881l.032,2.353a6.362,6.362,0,0,1-5.763,6.387l-19.492,1.766a5.875,5.875,0,0,1-.589.022Z" transform="translate(-230.89 -213.157)" fill="#2f2e41"/>
      <path id="Path_99" data-name="Path 99" d="M801.611,309.607c-6.035,3.588-9.647,10.18-11.719,16.9a160.071,160.071,0,0,0-6.877,38.241l-2.191,38.86L753.711,506.636c23.5,19.883,37.053,15.363,68.686-.9s35.246,5.422,35.246,5.422l6.325-87.663,9.037-95.793a42.486,42.486,0,0,0-6.846-6.581A69.923,69.923,0,0,0,806.4,308.448Z" transform="translate(-230.89 -213.157)" fill="#2489db"/>
      <path id="Path_558" data-name="Path 558" d="M792.8,429.921a14.827,14.827,0,0,1,2.112.986l62.447-31.259,1.036-16.933,25.759-1.776,1.38,38.6-83.45,27.6a14.784,14.784,0,1,1-9.283-17.223Z" transform="translate(-230.89 -213.157)" fill="#a0616a"/>
      <path id="Path_101" data-name="Path 101" d="M872.555,328.133c15.363,5.422,18.071,64.171,18.071,64.171-18.075-9.941-39.765,6.326-39.765,6.326s-4.518-15.365-9.941-35.246a34.54,34.54,0,0,1,7.229-32.535S857.19,322.708,872.555,328.133Z" transform="translate(-230.89 -213.157)" fill="#2489db"/>
      <path id="Path_102" data-name="Path 102" d="M854.562,270.568c-4.309-3.447-10.187,2.816-10.187,2.816l-3.447-31.016s-21.543,2.581-35.334-.862-15.943,12.5-15.943,12.5a110.651,110.651,0,0,1-.431-19.391c.862-7.756,12.064-15.512,31.885-20.683s30.162,17.236,30.162,17.236C865.063,238.057,858.876,274.019,854.562,270.568Z" transform="translate(-230.89 -213.157)" fill="#2f2e41"/>
    </g>
    <path id="Path_504" data-name="Path 504" d="M392.02,258.709a3.107,3.107,0,0,0,0,6.214H618.878a3.107,3.107,0,1,0,0-6.214Z" transform="translate(-230.89 -213.157)" fill="#ccc"/>
    <path id="Path_505" data-name="Path 505" d="M392.02,277.351a3.107,3.107,0,0,0-.013,6.214H535.429a3.107,3.107,0,1,0,0-6.214Z" transform="translate(-230.89 -213.157)" fill="#ccc"/>
    <path id="Path_2431" data-name="Path 2431" d="M598.365,241.015,594.6,236l.891-.669,3.067,4.089,12.073-9.876.706.863Z" transform="translate(-230.89 -213.157)" fill="#fff"/>
    <path id="Path_506" data-name="Path 506" d="M392.02,372.709a3.107,3.107,0,0,0,0,6.214H618.878a3.107,3.107,0,1,0,0-6.214Z" transform="translate(-230.89 -213.157)" fill="#ccc"/>
    <path id="Path_507" data-name="Path 507" d="M392.02,391.351a3.107,3.107,0,1,0-.013,6.214H535.429a3.107,3.107,0,1,0,0-6.214Z" transform="translate(-230.89 -213.157)" fill="#ccc"/>
    <path id="Path_2431-2" data-name="Path 2431" d="M597.365,355.015,593.6,350l.891-.669,3.067,4.089,12.073-9.876.706.863Z" transform="translate(-230.89 -213.157)" fill="#fff"/>
    <path id="Path_508" data-name="Path 508" d="M392.02,486.709a3.107,3.107,0,0,0,0,6.214H618.878a3.107,3.107,0,1,0,0-6.214Z" transform="translate(-230.89 -213.157)" fill="#ccc"/>
    <path id="Path_509" data-name="Path 509" d="M392.02,505.351a3.107,3.107,0,1,0-.013,6.214H535.429a3.107,3.107,0,1,0,0-6.214Z" transform="translate(-230.89 -213.157)" fill="#ccc"/>
    <path id="Path_2429" data-name="Path 2429" d="M615.035,462.956c0,7.534-5.851,13.642-13.068,13.642S588.9,470.49,588.9,462.956c0-.171,0-.34.01-.51.133-7.533,6.092-13.525,13.308-13.384s12.956,6.361,12.821,13.894Z" transform="translate(-230.89 -213.157)" fill="#707070"/>
    <path id="Path_2429-2" data-name="Path 2429" d="M615.035,462.956c0,7.534-5.851,13.642-13.068,13.642S588.9,470.49,588.9,462.956c0-.171,0-.34.01-.51.133-7.533,6.092-13.525,13.308-13.384s12.956,6.361,12.821,13.894Z" transform="translate(-230.89 -326.708)" fill="#707070"/>
    <path id="Path_2429-3" data-name="Path 2429" d="M615.035,462.956c0,7.534-5.851,13.642-13.068,13.642S588.9,470.49,588.9,462.956c0-.171,0-.34.01-.51.133-7.533,6.092-13.525,13.308-13.384s12.956,6.361,12.821,13.894Z" transform="translate(-230.89 -440.708)" fill="#707070"/>
    <g id="Icon_feather-tag" data-name="Icon feather-tag" transform="translate(365.286 243.88)">
      <path id="Path_510" data-name="Path 510" d="M10.3,6.7,6.71,10.29a1,1,0,0,1-1.415,0L1,6V1H6l4.3,4.3A1,1,0,0,1,10.3,6.7Z" fill="none" stroke="#fff" stroke-linecap="round" stroke-linejoin="round" stroke-width="1"/>
      <path id="Path_511" data-name="Path 511" d="M3.5,3.5h0" fill="none" stroke="#fff" stroke-linecap="round" stroke-linejoin="round" stroke-width="1"/>
    </g>
    <g id="Icon_feather-tag-2" data-name="Icon feather-tag" transform="translate(365.286 130.329)">
      <path id="Path_510-2" data-name="Path 510" d="M10.3,6.7,6.71,10.29a1,1,0,0,1-1.415,0L1,6V1H6l4.3,4.3A1,1,0,0,1,10.3,6.7Z" fill="none" stroke="#fff" stroke-linecap="round" stroke-linejoin="round" stroke-width="1"/>
      <path id="Path_511-2" data-name="Path 511" d="M3.5,3.5h0" fill="none" stroke="#fff" stroke-linecap="round" stroke-linejoin="round" stroke-width="1"/>
    </g>
    <g id="Icon_feather-tag-3" data-name="Icon feather-tag" transform="translate(365.286 16.329)">
      <path id="Path_510-3" data-name="Path 510" d="M10.3,6.7,6.71,10.29a1,1,0,0,1-1.415,0L1,6V1H6l4.3,4.3A1,1,0,0,1,10.3,6.7Z" fill="none" stroke="#fff" stroke-linecap="round" stroke-linejoin="round" stroke-width="1"/>
      <path id="Path_511-3" data-name="Path 511" d="M3.5,3.5h0" fill="none" stroke="#fff" stroke-linecap="round" stroke-linejoin="round" stroke-width="1"/>
    </g>
  </g>
</svg>
