<svg id="pusher-seeklogo.com" xmlns="http://www.w3.org/2000/svg" width="60" height="15.799" viewBox="0 0 60 15.799">
  <path id="Path_66" data-name="Path 66" d="M5.095.006a.047.047,0,0,1,.047,0h0l5.072,2.926a.05.05,0,0,1,.023.041h0V4.113a.023.023,0,0,1-.012.021h0L5.131,7.072a.023.023,0,0,0-.012.02h0V8.218a.023.023,0,0,0,.036.02h0L10.2,5.327a.024.024,0,0,1,.035.021h0V6.474a.025.025,0,0,1-.012.021h0L5.13,9.433a.023.023,0,0,0-.012.02h0V10.58a.023.023,0,0,0,.035.021h0L10.2,7.689a.023.023,0,0,1,.035.021h0V8.836a.023.023,0,0,1-.012.021h0L5.131,11.8a.024.024,0,0,0-.012.021h0v3.961a.022.022,0,0,1-.011.019.023.023,0,0,1-.022,0h0l-.979-.562a.025.025,0,0,1-.011-.021h0V5.32A.024.024,0,0,0,4.083,5.3h0l-.976-.563a.023.023,0,0,0-.035.021h0V14.6a.024.024,0,0,1-.036.021h0l-.976-.564a.024.024,0,0,1-.012-.021h0V4.141a.025.025,0,0,0-.011-.021h0l-.977-.563a.023.023,0,0,0-.035.02h0v9.838a.023.023,0,0,1-.035.021h0l-.976-.563A.022.022,0,0,1,0,12.851H0V2.945l1-.577a.05.05,0,0,1,.05,0h0L6.115,5.293a.05.05,0,0,0,.05,0h0l.965-.556a.023.023,0,0,0,0-.041h0L2.083,1.784a.023.023,0,0,1,0-.041h0l.962-.556a.05.05,0,0,1,.05,0h0L8.166,4.112a.05.05,0,0,0,.047,0h0l.965-.556a.024.024,0,0,0,0-.041h0L4.13.6a.023.023,0,0,1,0-.041h0ZM33.138,2.821A2.612,2.612,0,0,1,35.9,5.635a.191.191,0,0,1-.183.194h-.943a.181.181,0,0,1-.183-.17,1.516,1.516,0,0,0-1.545-1.62,1.245,1.245,0,0,0-1.387,1.209c0,.643.388.992,1.4,1.7l1.419,1.024a2.865,2.865,0,0,1,1.537,2.372,2.7,2.7,0,0,1-2.948,2.62,2.664,2.664,0,0,1-2.821-2.837.181.181,0,0,1,.183-.195h.958a.187.187,0,0,1,.182.171,1.557,1.557,0,0,0,1.553,1.644A1.334,1.334,0,0,0,34.6,10.379c0-.6-.269-.891-1.047-1.411L31.918,7.829a2.993,2.993,0,0,1-1.64-2.5A2.6,2.6,0,0,1,33.138,2.821Zm-9.351.108a.178.178,0,0,1,.183.179v7.178a1.5,1.5,0,0,0,3,0V3.113a.209.209,0,0,1,.2-.183h1.03a.178.178,0,0,1,.183.178v7.2a2.691,2.691,0,0,1-2.909,2.636,2.686,2.686,0,0,1-2.877-2.636v-7.2a.177.177,0,0,1,.182-.179Zm33.2.016a2.68,2.68,0,0,1,2.916,2.713,2.734,2.734,0,0,1-1.617,2.5.038.038,0,0,0-.024.022.04.04,0,0,0,0,.025l0,.008,1.72,4.395a.182.182,0,0,1-.156.249H58.743a.336.336,0,0,1-.236-.182l-.009-.021L56.976,8.511A.093.093,0,0,0,56.9,8.45H55.478a.1.1,0,0,0-.094.08v4.129a.176.176,0,0,1-.165.177H54.17a.177.177,0,0,1-.181-.16V3.123a.178.178,0,0,1,.164-.178h2.839Zm-38.616,0a2.64,2.64,0,0,1,2.916,2.8,2.769,2.769,0,0,1-2.883,2.868H16.845a.1.1,0,0,0-.094.08v3.982a.178.178,0,0,1-.164.178H15.537a.2.2,0,0,1-.18-.176V3.123A.175.175,0,0,1,15.409,3a.178.178,0,0,1,.111-.05h2.855Zm20.872,0a.178.178,0,0,1,.183.179V7.108a.1.1,0,0,0,.095.093H42.56a.1.1,0,0,0,.1-.093V3.123a.179.179,0,0,1,.183-.179h1.03a.178.178,0,0,1,.182.179v9.542a.178.178,0,0,1-.182.179h-1.03a.184.184,0,0,1-.183-.186V8.488a.1.1,0,0,0-.1-.094H39.526a.1.1,0,0,0-.1.093v4.17a.177.177,0,0,1-.182.178h-1.03a.178.178,0,0,1-.183-.178V3.123a.177.177,0,0,1,.183-.179Zm12.632,0a.176.176,0,0,1,.183.178v.829a.179.179,0,0,1-.183.178H48.147a.1.1,0,0,0-.1.093V7.146a.1.1,0,0,0,.1.093h2.568a.177.177,0,0,1,.182.178v.829a.177.177,0,0,1-.182.178H48.147a.1.1,0,0,0-.1.093v3.039a.1.1,0,0,0,.1.093H51.88a.182.182,0,0,1,.183.178v.829a.183.183,0,0,1-.183.178H46.84a.172.172,0,0,1-.182-.178V3.123a.177.177,0,0,1,.182-.178Zm-33.5,1.163h-1.53a.1.1,0,0,0-.092.081V7.339a.1.1,0,0,0,.084.092h1.54a1.538,1.538,0,0,0,1.49-1.69A1.452,1.452,0,0,0,18.375,4.107Zm38.505,0h-1.4a.087.087,0,0,0-.086.074V7.216a.1.1,0,0,0,.082.092h.013l1.395.008a1.528,1.528,0,0,0,1.577-1.562V5.713A1.509,1.509,0,0,0,56.88,4.107Z" transform="translate(0 0)" fill="#300d4f"/>
</svg>
